<?xml version="1.0" encoding="UTF-8" standalone="no"?>
<svg id="svg4290" xmlns:rdf="http://www.w3.org/1999/02/22-rdf-syntax-ns#" xmlns="http://www.w3.org/2000/svg" height="607.68mm" width="196.22mm" version="1.1" xmlns:cc="http://creativecommons.org/ns#" xmlns:dc="http://purl.org/dc/elements/1.1/" viewBox="0 0 695.28016 2153.1858">
<g id="layer1" transform="translate(416.21 855.66)">
<path id="path4151" d="m-67.418-855.66c-10.579-0.07-20.989 2.3973-30.345 6.8079-9.1466 4.3121-16.937 10.782-23.028 18.365-5.9782 7.4416-9.9709 16.039-12.272 24.813-2.2978 8.7612-3.0043 18.164-1.4847 27.507 1.5849 9.7447 5.5966 18.217 9.9843 25.503a13.245 13.245 0 1 0 22.69 -13.665c-3.3087-5.4937-5.7213-11.111-6.5312-16.09-0.8408-5.1696-0.4699-11.074 0.9622-16.535 1.4462-5.5141 4.0288-10.871 7.302-14.945 3.7198-4.6305 8.6486-8.6271 13.673-10.996 6.2248-2.9345 13.544-4.5055 20.142-4.2498 5.3301 0.2066 11.174 1.9229 15.913 4.6585 6.8533 3.9557 12.945 9.5153 16.21 15.26 3.7582 6.6121 5.7171 15.404 5.3207 23.383-0.3009 6.0556-2.7798 13.036-6.5286 18.962-3.3543 5.3029-8.242 10.084-13.37 12.983-1.0585 0.59853-7.2982 2.6803-12.376 3.7687-5.0774 1.0888-9.2381 1.6697-9.2381 1.6697l-11.42 1.5882v27.581a33.109 33.109 0 0 0 -19.865 30.301v10.684c-128.22 5.682-238.6 42.708-280.35 67.518 90.802-8.3738 200.62-12.904 313.46-12.932 112.78 0.0271 222.55 4.5521 313.33 12.918-41.76-24.795-152.07-61.811-280.22-67.501v-10.687a33.109 33.109 0 0 0 -19.865 -30.327v-4.9818c6.0365-1.2933 12.837-2.7295 19.582-6.5428 9.4324-5.3331 17.132-13.048 22.72-21.881 5.7987-9.1674 10.013-20.025 10.599-31.808 0.6419-12.917-2.1678-26.208-8.7479-37.785-6.3551-11.181-15.989-19.334-25.997-25.111-8.5048-4.9091-18.178-7.801-28.128-8.1867-0.7064-0.027-1.4118-0.043-2.1171-0.048zm-1.1536 245.18c-80.843 0.0145-233.12 6.8028-233.12 6.8028l-64.853 907.94a49.663 49.663 0 0 0 -49.663 49.663 49.663 49.663 0 0 0 49.663 49.663v463.52a49.663 49.663 0 0 0 -49.663 49.663 49.663 49.663 0 0 0 49.663 49.663v264.87a33.109 33.109 0 0 0 -33.109 33.109 33.109 33.109 0 0 0 33.109 33.108h595.95a33.109 33.109 0 0 0 33.109 -33.108 33.109 33.109 0 0 0 -33.109 -33.109v-264.87a49.663 49.663 0 0 0 49.663 -49.663 49.663 49.663 0 0 0 -49.663 -49.663v-463.52a49.663 49.663 0 0 0 49.663 -49.663 49.663 49.663 0 0 0 -49.663 -49.663l-64.85-907.89s-152.26-6.8197-233.13-6.8481zm13.243 20.811h49.636a49.663 49.663 0 0 1 0.027 0 49.663 49.663 0 0 0 0.0009 0 49.663 49.663 0 0 1 0.018 0h49.644v49.663a49.663 49.663 0 0 0 0 0.00089 49.663 49.663 0 0 1 -49.663 49.662 49.663 49.663 0 0 1 -49.663 -49.662v-0.00089-49.663zm-242.69 0.003h14.229a14.237 49.663 0 0 1 0.01 0h14.232v49.662a14.237 49.663 0 0 1 -14.237 49.662 14.237 49.663 0 0 1 -14.237 -49.662v-49.662zm35.426 0h31.767a31.784 49.663 0 0 1 0.017 0 31.784 49.663 0 0 1 0.013 0h31.771v49.662a31.784 49.663 0 0 1 -31.784 49.662 31.784 49.663 0 0 1 -31.784 -49.662v-49.662zm81.447 0h49.636a49.663 49.663 0 0 1 0.027 0 49.663 49.663 0 0 0 0.0009 0 49.663 49.663 0 0 1 0.018 0h49.643v49.662a49.663 49.663 0 0 1 -49.663 49.662 49.663 49.663 0 0 1 -49.663 -49.662v-49.662zm243.02 0h31.767a31.784 49.663 0 0 1 0.017 0 31.784 49.663 0 0 1 0.013 0h31.771v49.662a31.784 49.663 0 0 1 -31.784 49.662 31.784 49.663 0 0 1 -31.784 -49.662v-49.662zm70.521 0h14.229a14.237 49.663 0 0 1 0.01 0 14.237 49.663 0 0 1 0.01 0h14.232v49.662a14.237 49.663 0 0 1 -14.237 49.662 14.237 49.663 0 0 1 -14.237 -49.662v-49.662zm-465.84 993.25h33.109v463.52h-33.109v-463.52zm66.217 0h66.217v463.52h-66.217v-463.52zm99.326 0h198.65v463.52h-33.109v-33.109h-132.43v33.109h-33.109v-463.52zm231.76 0h66.217v463.52h-66.217v-463.52zm99.326 0h33.109v463.52h-33.109v-463.52z"/>
</g>
</svg>
